<svg width="80" height="80" viewBox="0 0 80 80" fill="none" xmlns="http://www.w3.org/2000/svg">
<path fill-rule="evenodd" clip-rule="evenodd" d="M57.334 0C63.7801 0 69.3403 2.15295 73.4093 6.23033C77.6626 10.4881 79.9958 16.6824 79.9878 23.6745L79.9936 51.7246C80.0006 51.8325 80.0019 51.9407 79.9973 52.0487L79.9878 56.3296C79.9878 70.4861 70.8757 80 57.3139 80H22.6538C9.104 80 0 70.4861 0 56.3296V23.6704C0 9.51388 9.104 0 22.6538 0H57.334ZM58.4428 43.4291C56.0856 43.4291 53.3195 47.3301 50.8702 50.774C47.5108 55.5049 44.0351 60.4001 38.7996 60.4001C35.2599 60.4001 32.0167 59.037 29.1585 57.8302C24.6125 55.9138 22.5519 55.3004 20.5355 56.9602C16.499 60.2868 12.5106 66.3444 10.678 69.3252C13.5705 72.3078 17.6795 73.9862 22.6538 73.9862H57.3139C67.4362 73.9862 73.9746 67.0582 73.9746 56.3296L73.9745 53.1262L73.8821 53.0287C70.3727 49.4127 64.3128 43.4291 58.4428 43.4291ZM57.334 6.01383H22.6538C12.5476 6.01383 6.01321 12.9458 6.01321 23.6704V56.3296C6.01321 59.0101 6.4211 61.4533 7.19068 63.6105C9.51053 60.1076 13.0142 55.3649 16.7151 52.3175C21.7342 48.188 27.138 50.4573 31.4916 52.2895C34.0532 53.3679 36.4745 54.3863 38.7996 54.3863C40.9323 54.3863 43.6062 50.6176 45.9714 47.294C49.2546 42.6593 52.9828 37.4153 58.4428 37.4153C64.4349 37.4153 69.862 41.098 73.9788 44.7527L73.9746 23.6704C73.9825 18.2059 72.3149 13.6434 69.1559 10.4801C66.2375 7.55738 62.1526 6.01383 57.334 6.01383ZM27.4884 16.7966C33.225 16.8006 37.8913 21.4674 37.8953 27.2006V27.2046C37.8953 32.9418 33.229 37.6085 27.4884 37.6085C21.7478 37.6085 17.0815 32.9418 17.0815 27.2046C17.0815 21.4634 21.7478 16.7966 27.4884 16.7966ZM27.4844 22.8105C25.0631 22.8105 23.0947 24.779 23.0947 27.2046C23.0947 29.6261 25.0631 31.5947 27.4884 31.5947C29.9097 31.5947 31.882 29.6261 31.882 27.2086C31.878 24.783 29.9057 22.8145 27.4844 22.8105Z" fill="url(#paint0_linear_0_213)"/>
<defs>
<linearGradient id="paint0_linear_0_213" x1="0" y1="40" x2="80" y2="40" gradientUnits="userSpaceOnUse">
<stop stop-color="#757F9A" id="img-color"/>
<stop offset="1" stop-color="#D7DDE8" id="img-color"/>
</linearGradient>
</defs>
</svg>
